<?xml version="1.0" encoding="utf-8"?>
<!-- Generator: Adobe Illustrator 24.0.2, SVG Export Plug-In . SVG Version: 6.00 Build 0)  -->
<svg version="1.1" id="Warstwa_1" xmlns="http://www.w3.org/2000/svg" xmlns:xlink="http://www.w3.org/1999/xlink" x="0px" y="0px"
	 viewBox="0 0 100 100" style="enable-background:new 0 0 100 100;" xml:space="preserve">
<style type="text/css">
	.st0{fill:#FFFFFF;}
</style>
<g>
	<path class="st0" d="M24.3,97.6c-6.2,0-11.6-2.2-16-6.6c-4.4-4.4-6.6-9.8-6.6-16V39.2h75.1v-9.5c0-3.1-0.2-4.8-0.6-5.2
		c-0.4-0.4-2.1-0.6-5.2-0.6H1.7V2.4h74c6.2,0,11.6,2.2,16,6.6c4.4,4.4,6.6,9.8,6.6,16v72.5H24.3z M28.9,76.1h47.9V58.5H23.2v11.8
		c0,3.1,0.2,4.8,0.6,5.2C24.1,75.9,25.9,76.1,28.9,76.1z"/>
</g>
</svg>

